# xmcd
#
# Track frame offsets: 
#        150
#        22607
#        43768
#        59992
#        81255
#        99148
#        112086
#        139341
#        159961
#        177513
#
# Disc length: 2670 seconds
#
# Revision: 0
# Processed by: cddbd v1.5.2PL0 Copyright (c) Steve Scherf et al.
# Submitted via: ExactAudioCopyFreeDBPlugin 1.0
#
DISCID=820a6c0a
DTITLE=Buckwheat Zydeco - Let The Good Times Roll (Essential Recording
DTITLE=s)
DYEAR=2008
DGENRE=Zydeco
TTITLE0=Let The Good Times Roll
TTITLE1=Hot Tamale Baby
TTITLE2=Ya Ya
TTITLE3=Tee Nah Nah
TTITLE4=Someone Else Is Steppin' In
TTITLE5=Lache Pas La Patate
TTITLE6=Turning Point
TTITLE7=Walkin' To New Orleans
TTITLE8=Zydeco Boogaloo
TTITLE9=Your Man Is Home Tonight
EXTD=
EXTT0=
EXTT1=
EXTT2=
EXTT3=
EXTT4=
EXTT5=
EXTT6=
EXTT7=
EXTT8=
EXTT9=
PLAYORDER=
